<mxfile host="app.diagrams.net" agent="Mozilla/5.0 (X11; Linux x86_64) AppleWebKit/537.36 (KHTML, like Gecko) Chrome/132.0.0.0 Safari/537.36" version="26.0.7">
  <diagram name="PÃ¡gina-1" id="TUloXHmCAe1TxpS9hBHO">
    <mxGraphModel dx="1137" dy="633" grid="1" gridSize="10" guides="1" tooltips="1" connect="1" arrows="1" fold="1" page="1" pageScale="1" pageWidth="827" pageHeight="1169" math="0" shadow="0">
      <root>
        <mxCell id="0" />
        <mxCell id="1" parent="0" />
        <mxCell id="R7--6H39nywZuSx8xu0A-5" style="edgeStyle=orthogonalEdgeStyle;rounded=0;orthogonalLoop=1;jettySize=auto;html=1;exitX=0.5;exitY=1;exitDx=0;exitDy=0;entryX=0.5;entryY=0;entryDx=0;entryDy=0;" edge="1" parent="1" source="R7--6H39nywZuSx8xu0A-2" target="R7--6H39nywZuSx8xu0A-4">
          <mxGeometry relative="1" as="geometry" />
        </mxCell>
        <mxCell id="R7--6H39nywZuSx8xu0A-2" value="Start" style="ellipse;whiteSpace=wrap;html=1;" vertex="1" parent="1">
          <mxGeometry x="310" y="70" width="150" height="60" as="geometry" />
        </mxCell>
        <mxCell id="R7--6H39nywZuSx8xu0A-7" style="edgeStyle=orthogonalEdgeStyle;rounded=0;orthogonalLoop=1;jettySize=auto;html=1;exitX=0.5;exitY=1;exitDx=0;exitDy=0;entryX=0.5;entryY=0;entryDx=0;entryDy=0;" edge="1" parent="1" source="R7--6H39nywZuSx8xu0A-4" target="R7--6H39nywZuSx8xu0A-6">
          <mxGeometry relative="1" as="geometry" />
        </mxCell>
        <mxCell id="R7--6H39nywZuSx8xu0A-4" value="Get datas from csv" style="rounded=0;whiteSpace=wrap;html=1;" vertex="1" parent="1">
          <mxGeometry x="325" y="160" width="120" height="60" as="geometry" />
        </mxCell>
        <mxCell id="R7--6H39nywZuSx8xu0A-9" style="edgeStyle=orthogonalEdgeStyle;rounded=0;orthogonalLoop=1;jettySize=auto;html=1;exitX=0.5;exitY=1;exitDx=0;exitDy=0;entryX=0.5;entryY=0;entryDx=0;entryDy=0;" edge="1" parent="1" source="R7--6H39nywZuSx8xu0A-6" target="R7--6H39nywZuSx8xu0A-8">
          <mxGeometry relative="1" as="geometry" />
        </mxCell>
        <mxCell id="R7--6H39nywZuSx8xu0A-6" value="Set graph configurations" style="rounded=0;whiteSpace=wrap;html=1;" vertex="1" parent="1">
          <mxGeometry x="325" y="250" width="120" height="60" as="geometry" />
        </mxCell>
        <mxCell id="R7--6H39nywZuSx8xu0A-13" style="edgeStyle=orthogonalEdgeStyle;rounded=0;orthogonalLoop=1;jettySize=auto;html=1;exitX=0.5;exitY=1;exitDx=0;exitDy=0;entryX=0.5;entryY=0;entryDx=0;entryDy=0;" edge="1" parent="1" source="R7--6H39nywZuSx8xu0A-8" target="R7--6H39nywZuSx8xu0A-12">
          <mxGeometry relative="1" as="geometry" />
        </mxCell>
        <mxCell id="R7--6H39nywZuSx8xu0A-8" value="Make graph and save" style="rounded=0;whiteSpace=wrap;html=1;" vertex="1" parent="1">
          <mxGeometry x="325" y="340" width="120" height="60" as="geometry" />
        </mxCell>
        <mxCell id="R7--6H39nywZuSx8xu0A-12" value="End" style="ellipse;whiteSpace=wrap;html=1;" vertex="1" parent="1">
          <mxGeometry x="310" y="420" width="150" height="60" as="geometry" />
        </mxCell>
      </root>
    </mxGraphModel>
  </diagram>
</mxfile>
